<?xml version="1.0" encoding="utf-8"?>
<!-- Generator: Adobe Illustrator 22.1.0, SVG Export Plug-In . SVG Version: 6.00 Build 0)  -->
<svg version="1.1" id="Слой_1" xmlns="http://www.w3.org/2000/svg" xmlns:xlink="http://www.w3.org/1999/xlink" x="0px" y="0px"
	 viewBox="0 0 255.6 41.3" style="enable-background:new 0 0 255.6 41.3;" xml:space="preserve">
<style type="text/css">
	.st0{fill:#3E00FF;}
	.st1{fill:#3700F9;}
	.st2{fill:none;}
</style>
<g id="XMLID_3702_">
	<path id="XMLID_3703_" class="st0" d="M3.2,41.2L3.2,41.2C1.4,41.2,0,39.8,0,38V3.2C0,1.4,1.4,0,3.2,0h0C5,0,6.4,1.4,6.4,3.2V38
		C6.4,39.8,5,41.2,3.2,41.2z"/>
</g>
<path id="XMLID_3701_" class="st0" d="M44.5,6.4v31.5c0,1.7-1.3,3.2-3,3.3C39.6,41.4,38,39.9,38,38V6.4H20v16.2h0V38
	c0,1.8-1.4,3.2-3.2,3.2c-0.9,0-1.7-0.4-2.3-0.9c-0.6-0.6-0.9-1.4-0.9-2.3V6.4C13.5,2.9,16.4,0,20,0H38C41.6,0,44.5,2.9,44.5,6.4z"/>
<g id="XMLID_3694_">
	<g id="XMLID_3695_">
		<path id="XMLID_3744_" class="st0" d="M76.1,3.2c0,0.9-0.4,1.7-0.9,2.3c-0.6,0.6-1.4,0.9-2.3,0.9h-7.4V38c0,0.9-0.4,1.7-0.9,2.3
			c-0.6,0.6-1.4,0.9-2.3,0.9c-1.8,0-3.2-1.4-3.2-3.2V6.4h-7.4c-1.8,0-3.2-1.4-3.2-3.2c0-0.9,0.4-1.7,0.9-2.3C49.9,0.4,50.7,0,51.6,0
			h21.3C74.7,0,76.1,1.4,76.1,3.2z"/>
	</g>
</g>
<g id="XMLID_3690_">
	<path id="XMLID_3691_" class="st1" d="M176.3,0h-7.4c0,1.8,0.7,3.4,1.9,4.6c1.2,1.2,2.8,1.9,4.6,1.9h1v28.4h-1
		c-3.6,0-6.4,2.9-6.4,6.4h7.4c3.6,0,6.4-2.9,6.4-6.4V6.4C182.8,2.9,179.9,0,176.3,0z M159.3,34.8h-1V6.4h1c3.6,0,6.4-2.9,6.4-6.4
		h-7.4c-3.6,0-6.4,2.9-6.4,6.4v28.4c0,3.6,2.9,6.4,6.4,6.4h7.4c0-1.8-0.7-3.4-1.9-4.6C162.7,35.5,161.1,34.8,159.3,34.8z"/>
</g>
<g id="XMLID_3686_">
	<path id="XMLID_3687_" class="st0" d="M86.3,41.2L86.3,41.2l0.2,0C86.4,41.3,86.3,41.3,86.3,41.2z"/>
	<path id="XMLID_3740_" class="st0" d="M104.5,0h-18C82.9,0,80,2.9,80,6.4v28.4c0,3.5,2.8,6.4,6.3,6.4c0.1,0,0.1,0,0.2,0h18
		c3.6,0,6.4-2.9,6.4-6.4V6.4C110.9,2.9,108,0,104.5,0z M104.5,34.8h-18V6.4h18V34.8z"/>
</g>
<g id="XMLID_3682_">
	<path id="XMLID_3742_" class="st1" d="M220.8,17.6v9.3c0,9.7-7.9,14.3-17.6,14.3h-13.4V9.7c1.8,0,3.4,0.7,4.6,1.9
		c1.2,1.2,1.9,2.8,1.9,4.6v18.7h6.9c6.1,0,11.1-1.8,11.1-7.9v-9.3c0-6.1-5-11.1-11.1-11.1h-6.9c-1.8,0-3.4-0.7-4.6-1.9
		c-1.2-1.2-1.9-2.8-1.9-4.6h13.4C212.9,0,220.8,7.9,220.8,17.6z"/>
</g>
<path id="XMLID_3681_" class="st1" d="M145.7,3.2c0,0.9-0.4,1.7-0.9,2.3c-0.6,0.6-1.4,0.9-2.3,0.9h-8.4c-3.6,0-6.4-2.9-6.4-6.4v0
	h14.8C144.3,0,145.7,1.4,145.7,3.2z"/>
<path id="XMLID_3680_" class="st1" d="M145.7,38c0,0.9-0.4,1.7-0.9,2.3c-0.6,0.6-1.4,0.9-2.3,0.9h-14.8v0c0-3.6,2.9-6.4,6.4-6.4h8.4
	C144.3,34.8,145.7,36.2,145.7,38z"/>
<path id="XMLID_3679_" class="st1" d="M124.5,0v41.2c-3.6,0-6.4-2.9-6.4-6.4V6.4C118,2.9,120.9,0,124.5,0z"/>
<path id="XMLID_3678_" class="st1" d="M255.6,3.2c0,0.9-0.4,1.7-0.9,2.3c-0.6,0.6-1.4,0.9-2.3,0.9H244c-3.6,0-6.4-2.9-6.4-6.4v0
	h14.8C254.2,0,255.6,1.4,255.6,3.2z"/>
<path id="XMLID_3677_" class="st1" d="M255.6,38c0,0.9-0.4,1.7-0.9,2.3c-0.6,0.6-1.4,0.9-2.3,0.9h-14.8v0c0-3.6,2.9-6.4,6.4-6.4h8.4
	C254.2,34.8,255.6,36.2,255.6,38z"/>
<path id="XMLID_3676_" class="st1" d="M234.4,0v41.2h0c-3.6,0-6.4-2.9-6.4-6.4V6.4C227.9,2.9,230.8,0,234.4,0z"/>
<g id="XMLID_3674_">
	<path id="XMLID_3675_" class="st1" d="M246.3,23.8h-5.8c-1.8,0-3.2-1.4-3.2-3.2v0c0-1.8,1.4-3.2,3.2-3.2h5.8c1.8,0,3.2,1.4,3.2,3.2
		v0C249.5,22.4,248.1,23.8,246.3,23.8z"/>
</g>
<line id="XMLID_3673_" class="st2" x1="124.5" y1="34.8" x2="124.5" y2="6.4"/>
<line id="XMLID_3672_" class="st2" x1="234.4" y1="34.8" x2="234.4" y2="6.4"/>
</svg>
